<svg width="92" height="92" viewBox="0 0 92 92" fill="none" xmlns="http://www.w3.org/2000/svg">
<path d="M70.7002 64.3C72.5002 66.1 72.5002 68.8999 70.7002 70.6999C69.8002 71.5999 68.7002 72 67.5002 72C66.3002 72 65.2002 71.5999 64.3002 70.6999L46.0002 52.4L27.7002 70.6999C26.8002 71.5999 25.7002 72 24.5002 72C23.3002 72 22.2002 71.5999 21.3002 70.6999C19.5002 68.8999 19.5002 66.1 21.3002 64.3L39.6002 46L21.3002 27.7C19.5002 25.9 19.5002 23.1 21.3002 21.3C23.1002 19.5 25.9002 19.5 27.7002 21.3L46.0002 39.6L64.3002 21.3C66.1002 19.5 68.9002 19.5 70.7002 21.3C72.5002 23.1 72.5002 25.9 70.7002 27.7L52.4002 46L70.7002 64.3Z" fill="white"/>
</svg>
